<?xml version="1.0" standalone="no"?>
<!DOCTYPE svg PUBLIC "-//W3C//DTD SVG 20010904//EN"
 "http://www.w3.org/TR/2001/REC-SVG-20010904/DTD/svg10.dtd">
<svg version="1.0" xmlns="http://www.w3.org/2000/svg"
 width="87.000000pt" height="87.000000pt" viewBox="0 0 87.000000 87.000000"
 preserveAspectRatio="xMidYMid meet">
<metadata>
Created by potrace 1.14, written by Peter Selinger 2001-2017
</metadata>
<g transform="translate(0.000000,87.000000) scale(0.100000,-0.100000)"
fill="#000000" stroke="none">
<path d="M469 818 c-37 -29 -85 -69 -109 -88 -74 -61 -76 -61 -82 10 -3 29 -7
35 -33 40 -16 4 -41 3 -55 0 l-25 -6 -1 -148 c-1 -81 -6 -152 -11 -157 -5 -5
-24 2 -46 18 -20 14 -38 24 -40 22 -2 -2 -15 -19 -30 -37 -15 -19 -27 -39 -27
-45 0 -7 52 -52 115 -102 63 -49 113 -96 112 -104 -1 -8 -19 -19 -41 -25 -21
-6 -38 -14 -38 -19 0 -4 4 -28 8 -53 l7 -46 36 5 c20 3 45 8 56 11 119 28 217
47 223 42 5 -6 1 -23 -22 -76 -5 -12 6 -22 39 -38 26 -12 51 -20 57 -16 5 3
39 66 74 140 48 100 68 132 79 128 8 -4 18 -17 21 -30 11 -42 28 -47 78 -22
55 26 56 16 -25 182 -33 66 -59 124 -59 129 0 4 24 7 52 5 l52 -3 9 48 c5 26
7 51 4 54 -4 3 -64 19 -134 35 -189 42 -187 41 -130 89 l32 27 -31 38 c-16 21
-34 39 -40 41 -5 2 -39 -21 -75 -49z m36 -178 l-6 -38 73 -17 c105 -24 108
-25 108 -36 0 -6 -13 -18 -30 -27 -16 -9 -30 -22 -30 -28 0 -6 16 -43 35 -83
20 -40 33 -76 30 -82 -4 -5 -21 -3 -41 6 -40 16 -43 13 -89 -87 -29 -64 -50
-74 -60 -27 -4 17 -12 32 -18 35 -7 2 -47 -4 -89 -15 -60 -14 -80 -16 -88 -6
-7 8 -4 17 10 30 11 10 20 24 20 31 0 7 -29 37 -65 66 -36 28 -65 57 -65 64 0
8 16 14 38 16 l37 3 3 93 c3 101 11 112 51 67 l22 -26 27 20 c15 10 47 35 72
54 24 20 48 33 53 30 4 -3 6 -22 2 -43z"/>
</g>
</svg>
